<svg xmlns="http://www.w3.org/2000/svg" viewBox="0 0 80 83.27"><defs><style>.cls-1{fill:#fff;}</style></defs><title>Asset 8</title><g id="Layer_2" data-name="Layer 2"><g id="Layer_1-2" data-name="Layer 1"><path class="cls-1" d="M67.72,32.81a12.36,12.36,0,0,0-9,3.89,4,4,0,1,0,5.84,5.47,4.23,4.23,0,0,1,3.13-1.36,4.28,4.28,0,1,1,0,8.56H4a4,4,0,0,0,0,8H67.72a12.28,12.28,0,1,0,0-24.56Z"/><path class="cls-1" d="M58.68,62.81H3.5a3.5,3.5,0,0,0,0,7H58.68a3.5,3.5,0,1,0,0-7Z"/><path class="cls-1" d="M55.47,79.27a3.5,3.5,0,0,0-3.5-3.5H3.51a3.5,3.5,0,0,0,0,7H52A3.5,3.5,0,0,0,55.47,79.27Z"/><path class="cls-1" d="M64.15,75.27a4,4,0,0,0,0,8h.15a4,4,0,0,0,0-8Z"/><path class="cls-1" d="M41.92,42a3,3,0,0,1-5.61,0L21.91,4.07a3,3,0,0,1,4.7-3.4l12.51,10.2L51.62.67a3,3,0,0,1,4.7,3.4ZM41,17.06a3,3,0,0,1-3.79,0L31.5,12.4l7.62,20,7.61-20Z"/></g></g></svg>