<svg xmlns="http://www.w3.org/2000/svg" viewBox="0 0 88.12 69.17"><defs><style>.cls-1{fill:#fff;}</style></defs><title>Asset 6</title><g id="Layer_2" data-name="Layer 2"><g id="Layer_1-2" data-name="Layer 1"><path class="cls-1" d="M75.84,14.61a12.33,12.33,0,0,0-9,3.89A4,4,0,1,0,72.71,24a4.23,4.23,0,0,1,3.13-1.36,4.28,4.28,0,0,1,0,8.56H12.12a4,4,0,1,0,0,8H75.84a12.28,12.28,0,0,0,0-24.56Z"/><path class="cls-1" d="M49.48,44.61H4a4,4,0,1,0,0,8H49.48a4.28,4.28,0,1,1-3.13,7.2,4,4,0,1,0-5.84,5.46,12.28,12.28,0,1,0,9-20.66Z"/><path class="cls-1" d="M49.15,24.56h-45A4.71,4.71,0,0,1,.1,21.38a3.65,3.65,0,0,1,.11-2A4.53,4.53,0,0,1,4,16.56H49.31A4.39,4.39,0,0,0,53.7,13a4.29,4.29,0,0,0-4.88-4.93,4.35,4.35,0,0,0-2.48,1.32,4,4,0,0,1-5.66.16,4.19,4.19,0,0,1,.22-6A12.28,12.28,0,0,1,61.59,14.35,12.49,12.49,0,0,1,49.15,24.56Z"/></g></g></svg>